<svg
  xmlns="http://www.w3.org/2000/svg"
  viewBox="0 0 512 512"
  role="img"
  aria-label="Skinz"
>
  <rect
    width="512"
    height="512"
    rx="112"
    fill="#020617"
  />

  <circle
    cx="256"
    cy="256"
    r="188"
    fill="#0f172a"
  />

  <path
    d="M218 336V150"
    stroke="#ffffff"
    stroke-width="28"
    stroke-linecap="round"
  />

  <path
    d="M232 154C232 154 282 124 352 150C315 172 278 194 232 178V154Z"
    fill="#10b981"
  />

  <path
    d="M232 184C274 199 313 181 352 158V236C309 216 273 226 232 248V184Z"
    fill="#34d399"
  />

  <ellipse
    cx="256"
    cy="356"
    rx="106"
    ry="28"
    fill="#020617"
    stroke="#ffffff"
    stroke-width="18"
  />

  <circle
    cx="336"
    cy="318"
    r="34"
    fill="#ffffff"
  />

  <circle
    cx="325"
    cy="307"
    r="5"
    fill="#cbd5e1"
  />

  <circle
    cx="342"
    cy="304"
    r="5"
    fill="#cbd5e1"
  />

  <circle
    cx="347"
    cy="323"
    r="5"
    fill="#cbd5e1"
  />

  <path
    d="M154 384C190 414 321 418 366 384"
    stroke="#10b981"
    stroke-width="20"
    stroke-linecap="round"
    fill="none"
  />
</svg>